<svg class="main-svg" xmlns="http://www.w3.org/2000/svg" xmlns:xlink="http://www.w3.org/1999/xlink" width="700" height="500" viewBox="0 0 700 500"><rect x="0" y="0" width="700" height="500" style="fill: rgb(255, 255, 255); fill-opacity: 1;"/><defs id="defs-687e0b"><g class="clips"><clipPath id="clip687e0bxyplot" class="plotclip"><rect width="649" height="424"/></clipPath><clipPath class="axesclip" id="clip687e0bx"><rect x="44" y="0" width="649" height="500"/></clipPath><clipPath class="axesclip" id="clip687e0by"><rect x="0" y="26" width="700" height="424"/></clipPath><clipPath class="axesclip" id="clip687e0bxy"><rect x="44" y="26" width="649" height="424"/></clipPath></g><g class="gradients"/></defs><g class="bglayer"/><g class="layer-below"><g class="imagelayer"/><g class="shapelayer"/></g><g class="cartesianlayer"><g class="subplot xy"><g class="layer-subplot"><g class="shapelayer"/><g class="imagelayer"/></g><g class="gridlayer"><g class="x"><path class="xgrid crisp" transform="translate(178.86,0)" d="M0,26v424" style="stroke: rgb(235, 235, 235); stroke-opacity: 1; stroke-width: 0.664176px;"/><path class="xgrid crisp" transform="translate(326.36,0)" d="M0,26v424" style="stroke: rgb(235, 235, 235); stroke-opacity: 1; stroke-width: 0.664176px;"/><path class="xgrid crisp" transform="translate(473.86,0)" d="M0,26v424" style="stroke: rgb(235, 235, 235); stroke-opacity: 1; stroke-width: 0.664176px;"/><path class="xgrid crisp" transform="translate(621.36,0)" d="M0,26v424" style="stroke: rgb(235, 235, 235); stroke-opacity: 1; stroke-width: 0.664176px;"/></g><g class="y"><path class="ygrid crisp" transform="translate(0,403.48)" d="M44,0h649" style="stroke: rgb(235, 235, 235); stroke-opacity: 1; stroke-width: 0.664176px;"/><path class="ygrid crisp" transform="translate(0,271.65999999999997)" d="M44,0h649" style="stroke: rgb(235, 235, 235); stroke-opacity: 1; stroke-width: 0.664176px;"/><path class="ygrid crisp" transform="translate(0,139.84)" d="M44,0h649" style="stroke: rgb(235, 235, 235); stroke-opacity: 1; stroke-width: 0.664176px;"/></g></g><g class="zerolinelayer"/><path class="xlines-below"/><path class="ylines-below"/><g class="overlines-below"/><g class="xaxislayer-below"/><g class="yaxislayer-below"/><g class="overaxes-below"/><g class="plot" transform="translate(44, 26)" clip-path="url('#clip687e0bxyplot')"><g class="scatterlayer mlayer"><g class="trace scatter trace34e3c7" style="stroke-miterlimit: 2; opacity: 1;"><g class="fills"><g><path class="js-fill" d="M29.5,384.36L50.57,401.49L71.64,404.73L92.71,387.37L113.79,391.52L155.93,366.65L177,369.8L198.07,374.34L219.14,390.71L240.21,382.26L261.29,370.92L282.36,350.67L303.43,318.87L345.57,231.03L366.64,224.21L387.71,224.67L408.79,202.33L429.86,128.42L450.93,160.15L472,214.49L493.07,245.8L514.14,245.28L535.21,206.44L556.29,154L577.36,91.96L598.43,74.17L619.5,115.99L619.5,74.34L598.43,19.27L577.36,38.51L556.29,113.48L535.21,175.26L514.14,219.71L493.07,218.12L472,176.54L450.93,101.12L429.86,51.15L408.79,150.3L387.71,176.92L366.64,172.02L345.57,176.66L303.43,288.84L282.36,327.15L261.29,350.05L240.21,361.18L219.14,368.73L198.07,339.31L155.93,306.86L134.86,320.29L113.79,334.5L92.71,305.87L71.64,333.6L50.57,302.52L29.5,167.81L29.5,384.36Z" style="fill: rgb(211, 211, 211); fill-opacity: 1; stroke-width: 0;"/></g></g><g class="errorbars"/><g class="lines"><path class="js-line" d="M29.5,384.36L50.57,401.49L71.64,404.73L92.71,387.37L113.79,391.52L155.93,366.65L177,369.8L198.07,374.34L219.14,390.71L240.21,382.26L261.29,370.92L282.36,350.67L303.43,318.87L345.57,231.03L366.64,224.21L387.71,224.67L408.79,202.33L429.86,128.42L450.93,160.15L472,214.49L493.07,245.8L514.14,245.28L535.21,206.44L556.29,154L577.36,91.96L598.43,74.17L619.5,115.99L619.5,74.34L598.43,19.27L577.36,38.51L556.29,113.48L535.21,175.26L514.14,219.71L493.07,218.12L472,176.54L450.93,101.12L429.86,51.15L408.79,150.3L387.71,176.92L366.64,172.02L345.57,176.66L303.43,288.84L282.36,327.15L261.29,350.05L240.21,361.18L219.14,368.73L198.07,339.31L155.93,306.86L134.86,320.29L113.79,334.5L92.71,305.87L71.64,333.6L50.57,302.52L29.5,167.81L29.5,384.36" style="vector-effect: non-scaling-stroke; fill: none; stroke: rgb(0, 0, 0); stroke-opacity: 0; stroke-width: 1.88976px; opacity: 1;"/></g><g class="points"/><g class="text"/></g><g class="trace scatter traceb13485" style="stroke-miterlimit: 2; opacity: 1;"><g class="fills"/><g class="errorbars"/><g class="lines"><path class="js-line" d="M29.5,325.33L50.57,366.98L71.64,377.78L92.71,356.48L113.79,368.34L155.93,341.78L177,349.78L198.07,358.76L219.14,380.61L240.21,372.49L261.29,361.18L282.36,339.7L303.43,304.93L345.57,206.24L366.64,200.28L387.71,202.63L408.79,178.33L429.86,93.32L450.93,132.92L472,196.65L493.07,232.64L514.14,233.08L535.21,191.61L556.29,134.83L577.36,66.83L598.43,48.35L619.5,96.21" style="vector-effect: non-scaling-stroke; fill: none; stroke: rgb(0, 0, 139); stroke-opacity: 1; stroke-width: 4.72441px; opacity: 1;"/></g><g class="points"/><g class="text"/></g></g></g><g class="overplot"/><path class="xlines-above crisp" d="" style="fill: none; stroke-width: 1px; stroke: rgb(0, 0, 0); stroke-opacity: 0;"/><path class="ylines-above crisp" d="" style="fill: none; stroke-width: 1px; stroke: rgb(0, 0, 0); stroke-opacity: 0;"/><g class="overlines-above"/><g class="xaxislayer-above"><path class="xtick ticks crisp" d="M0,451v3.65296803652968" transform="translate(178.86,0)" style="stroke: rgb(51, 51, 51); stroke-opacity: 1; stroke-width: 0.664176px;"/><path class="xtick ticks crisp" d="M0,451v3.65296803652968" transform="translate(326.36,0)" style="stroke: rgb(51, 51, 51); stroke-opacity: 1; stroke-width: 0.664176px;"/><path class="xtick ticks crisp" d="M0,451v3.65296803652968" transform="translate(473.86,0)" style="stroke: rgb(51, 51, 51); stroke-opacity: 1; stroke-width: 0.664176px;"/><path class="xtick ticks crisp" d="M0,451v3.65296803652968" transform="translate(621.36,0)" style="stroke: rgb(51, 51, 51); stroke-opacity: 1; stroke-width: 0.664176px;"/><g class="xtick"><text text-anchor="middle" x="0" y="473.7812370278123" transform="translate(178.86,0)" style="font-family: 'Open Sans', verdana, arial, sans-serif; font-size: 15.9402px; fill: rgb(77, 77, 77); fill-opacity: 1; white-space: pre;">16/Mar</text></g><g class="xtick"><text text-anchor="middle" x="0" y="473.7812370278123" transform="translate(326.36,0)" style="font-family: 'Open Sans', verdana, arial, sans-serif; font-size: 15.9402px; fill: rgb(77, 77, 77); fill-opacity: 1; white-space: pre;">23/Mar</text></g><g class="xtick"><text text-anchor="middle" x="0" y="473.7812370278123" transform="translate(473.86,0)" style="font-family: 'Open Sans', verdana, arial, sans-serif; font-size: 15.9402px; fill: rgb(77, 77, 77); fill-opacity: 1; white-space: pre;">30/Mar</text></g><g class="xtick"><text text-anchor="middle" x="0" y="473.7812370278123" transform="translate(621.36,0)" style="font-family: 'Open Sans', verdana, arial, sans-serif; font-size: 15.9402px; fill: rgb(77, 77, 77); fill-opacity: 1; white-space: pre;">06/Apr</text></g></g><g class="yaxislayer-above"><path class="ytick ticks crisp" d="M43,0h-3.65296803652968" transform="translate(0,403.48)" style="stroke: rgb(51, 51, 51); stroke-opacity: 1; stroke-width: 0.664176px;"/><path class="ytick ticks crisp" d="M43,0h-3.65296803652968" transform="translate(0,271.65999999999997)" style="stroke: rgb(51, 51, 51); stroke-opacity: 1; stroke-width: 0.664176px;"/><path class="ytick ticks crisp" d="M43,0h-3.65296803652968" transform="translate(0,139.84)" style="stroke: rgb(51, 51, 51); stroke-opacity: 1; stroke-width: 0.664176px;"/><g class="ytick"><text text-anchor="end" x="36.15898713158988" y="5.5790784557907696" transform="translate(0,403.48)" style="font-family: 'Open Sans', verdana, arial, sans-serif; font-size: 15.9402px; fill: rgb(77, 77, 77); fill-opacity: 1; white-space: pre;">2</text></g><g class="ytick"><text text-anchor="end" x="36.15898713158988" y="5.5790784557907696" transform="translate(0,271.65999999999997)" style="font-family: 'Open Sans', verdana, arial, sans-serif; font-size: 15.9402px; fill: rgb(77, 77, 77); fill-opacity: 1; white-space: pre;">4</text></g><g class="ytick"><text text-anchor="end" x="36.15898713158988" y="5.5790784557907696" transform="translate(0,139.84)" style="font-family: 'Open Sans', verdana, arial, sans-serif; font-size: 15.9402px; fill: rgb(77, 77, 77); fill-opacity: 1; white-space: pre;">6</text></g></g><g class="overaxes-above"/></g></g><g class="polarlayer"/><g class="ternarylayer"/><g class="geolayer"/><g class="funnelarealayer"/><g class="pielayer"/><g class="treemaplayer"/><g class="sunburstlayer"/><g class="glimages"/><defs id="topdefs-687e0b"><g class="clips"/></defs><g class="layer-above"><g class="imagelayer"/><g class="shapelayer"><path data-index="0" fill-rule="evenodd" d="M44,450H693V26H44Z" style="opacity: 1; stroke: rgb(51, 51, 51); stroke-opacity: 1; fill: rgb(0, 0, 0); fill-opacity: 0; stroke-width: 0.664176px;"/></g></g><g class="infolayer"><g class="g-gtitle"/><g class="g-xtitle"/><g class="g-ytitle" transform="translate(20.1943359375,0)"><text class="ytitle" transform="rotate(-90,-3.193856371938601,238)" x="-3.193856371938601" y="238" text-anchor="middle" style="font-family: 'Open Sans', verdana, arial, sans-serif; font-size: 18.6px; fill: rgb(0, 0, 0); opacity: 1; font-weight: normal; white-space: pre;"><tspan style="font-weight:bold"> São Paulo </tspan></text></g></g></svg>