<svg class="main-svg" xmlns="http://www.w3.org/2000/svg" xmlns:xlink="http://www.w3.org/1999/xlink" width="700" height="500" viewBox="0 0 700 500"><rect x="0" y="0" width="700" height="500" style="fill: rgb(255, 255, 255); fill-opacity: 1;"/><defs id="defs-71bca4"><g class="clips"><clipPath id="clip71bca4xyplot" class="plotclip"><rect width="649" height="425"/></clipPath><clipPath class="axesclip" id="clip71bca4x"><rect x="44" y="0" width="649" height="500"/></clipPath><clipPath class="axesclip" id="clip71bca4y"><rect x="0" y="26" width="700" height="425"/></clipPath><clipPath class="axesclip" id="clip71bca4xy"><rect x="44" y="26" width="649" height="425"/></clipPath></g><g class="gradients"/></defs><g class="bglayer"/><g class="layer-below"><g class="imagelayer"/><g class="shapelayer"/></g><g class="cartesianlayer"><g class="subplot xy"><g class="layer-subplot"><g class="shapelayer"/><g class="imagelayer"/></g><g class="gridlayer"><g class="x"><path class="xgrid crisp" transform="translate(178.86,0)" d="M0,26v425" style="stroke: rgb(235, 235, 235); stroke-opacity: 1; stroke-width: 0.664176px;"/><path class="xgrid crisp" transform="translate(326.36,0)" d="M0,26v425" style="stroke: rgb(235, 235, 235); stroke-opacity: 1; stroke-width: 0.664176px;"/><path class="xgrid crisp" transform="translate(473.86,0)" d="M0,26v425" style="stroke: rgb(235, 235, 235); stroke-opacity: 1; stroke-width: 0.664176px;"/><path class="xgrid crisp" transform="translate(621.36,0)" d="M0,26v425" style="stroke: rgb(235, 235, 235); stroke-opacity: 1; stroke-width: 0.664176px;"/></g><g class="y"><path class="ygrid crisp" transform="translate(0,404.37)" d="M44,0h649" style="stroke: rgb(235, 235, 235); stroke-opacity: 1; stroke-width: 0.664176px;"/><path class="ygrid crisp" transform="translate(0,272.24)" d="M44,0h649" style="stroke: rgb(235, 235, 235); stroke-opacity: 1; stroke-width: 0.664176px;"/><path class="ygrid crisp" transform="translate(0,140.11)" d="M44,0h649" style="stroke: rgb(235, 235, 235); stroke-opacity: 1; stroke-width: 0.664176px;"/></g></g><g class="zerolinelayer"/><path class="xlines-below"/><path class="ylines-below"/><g class="overlines-below"/><g class="xaxislayer-below"/><g class="yaxislayer-below"/><g class="overaxes-below"/><g class="plot" transform="translate(44, 26)" clip-path="url('#clip71bca4xyplot')"><g class="scatterlayer mlayer"><g class="trace scatter trace84b577" style="stroke-miterlimit: 2; opacity: 1;"><g class="fills"><g><path class="js-fill" d="M29.5,385.27L50.57,402.44L71.64,405.68L92.71,388.29L113.79,392.44L155.93,367.51L177,370.67L198.07,375.22L219.14,391.63L240.21,383.16L261.29,371.79L282.36,351.5L303.43,319.62L345.57,231.57L366.64,224.73L387.71,225.2L408.79,202.81L429.86,128.72L450.93,160.52L472,214.99L493.07,246.38L514.14,245.86L535.21,206.93L556.29,154.36L577.36,92.17L598.43,74.35L619.5,116.26L619.5,74.52L598.43,19.32L577.36,38.6L556.29,113.75L535.21,175.68L514.14,220.23L493.07,218.64L472,176.95L450.93,101.36L429.86,51.27L408.79,150.65L387.71,177.34L366.64,172.43L345.57,177.07L303.43,289.52L282.36,327.92L261.29,350.87L240.21,362.03L219.14,369.6L198.07,340.11L155.93,307.58L134.86,321.04L113.79,335.29L92.71,306.59L71.64,334.39L50.57,303.23L29.5,168.21L29.5,385.27Z" style="fill: rgb(211, 211, 211); fill-opacity: 1; stroke-width: 0;"/></g></g><g class="errorbars"/><g class="lines"><path class="js-line" d="M29.5,385.27L50.57,402.44L71.64,405.68L92.71,388.29L113.79,392.44L155.93,367.51L177,370.67L198.07,375.22L219.14,391.63L240.21,383.16L261.29,371.79L282.36,351.5L303.43,319.62L345.57,231.57L366.64,224.73L387.71,225.2L408.79,202.81L429.86,128.72L450.93,160.52L472,214.99L493.07,246.38L514.14,245.86L535.21,206.93L556.29,154.36L577.36,92.17L598.43,74.35L619.5,116.26L619.5,74.52L598.43,19.32L577.36,38.6L556.29,113.75L535.21,175.68L514.14,220.23L493.07,218.64L472,176.95L450.93,101.36L429.86,51.27L408.79,150.65L387.71,177.34L366.64,172.43L345.57,177.07L303.43,289.52L282.36,327.92L261.29,350.87L240.21,362.03L219.14,369.6L198.07,340.11L155.93,307.58L134.86,321.04L113.79,335.29L92.71,306.59L71.64,334.39L50.57,303.23L29.5,168.21L29.5,385.27" style="vector-effect: non-scaling-stroke; fill: none; stroke: rgb(0, 0, 0); stroke-opacity: 0; stroke-width: 1.88976px; opacity: 1;"/></g><g class="points"/><g class="text"/></g><g class="trace scatter trace849412" style="stroke-miterlimit: 2; opacity: 1;"><g class="fills"/><g class="errorbars"/><g class="lines"><path class="js-line" d="M29.5,326.1L50.57,367.85L71.64,378.67L92.71,357.32L113.79,369.21L155.93,342.59L177,350.6L198.07,359.61L219.14,381.51L240.21,373.37L261.29,362.04L282.36,340.5L303.43,305.65L345.57,206.73L366.64,200.75L387.71,203.1L408.79,178.75L429.86,93.54L450.93,133.23L472,197.11L493.07,233.19L514.14,233.63L535.21,192.06L556.29,135.14L577.36,66.99L598.43,48.46L619.5,96.43" style="vector-effect: non-scaling-stroke; fill: none; stroke: rgb(0, 0, 139); stroke-opacity: 1; stroke-width: 4.72441px; opacity: 1;"/></g><g class="points"/><g class="text"/></g></g></g><g class="overplot"/><path class="xlines-above crisp" d="" style="fill: none; stroke-width: 1px; stroke: rgb(0, 0, 0); stroke-opacity: 0;"/><path class="ylines-above crisp" d="" style="fill: none; stroke-width: 1px; stroke: rgb(0, 0, 0); stroke-opacity: 0;"/><g class="overlines-above"/><g class="xaxislayer-above"><path class="xtick ticks crisp" d="M0,452v3.65296803652968" transform="translate(178.86,0)" style="stroke: rgb(51, 51, 51); stroke-opacity: 1; stroke-width: 0.664176px;"/><path class="xtick ticks crisp" d="M0,452v3.65296803652968" transform="translate(326.36,0)" style="stroke: rgb(51, 51, 51); stroke-opacity: 1; stroke-width: 0.664176px;"/><path class="xtick ticks crisp" d="M0,452v3.65296803652968" transform="translate(473.86,0)" style="stroke: rgb(51, 51, 51); stroke-opacity: 1; stroke-width: 0.664176px;"/><path class="xtick ticks crisp" d="M0,452v3.65296803652968" transform="translate(621.36,0)" style="stroke: rgb(51, 51, 51); stroke-opacity: 1; stroke-width: 0.664176px;"/><g class="xtick"><text text-anchor="middle" x="0" y="474.7812370278123" transform="translate(178.86,0)" style="font-family: 'Open Sans', verdana, arial, sans-serif; font-size: 15.9402px; fill: rgb(77, 77, 77); fill-opacity: 1; white-space: pre;">16/mar</text></g><g class="xtick"><text text-anchor="middle" x="0" y="474.7812370278123" transform="translate(326.36,0)" style="font-family: 'Open Sans', verdana, arial, sans-serif; font-size: 15.9402px; fill: rgb(77, 77, 77); fill-opacity: 1; white-space: pre;">23/mar</text></g><g class="xtick"><text text-anchor="middle" x="0" y="474.7812370278123" transform="translate(473.86,0)" style="font-family: 'Open Sans', verdana, arial, sans-serif; font-size: 15.9402px; fill: rgb(77, 77, 77); fill-opacity: 1; white-space: pre;">30/mar</text></g><g class="xtick"><text text-anchor="middle" x="0" y="474.7812370278123" transform="translate(621.36,0)" style="font-family: 'Open Sans', verdana, arial, sans-serif; font-size: 15.9402px; fill: rgb(77, 77, 77); fill-opacity: 1; white-space: pre;">06/abr</text></g></g><g class="yaxislayer-above"><path class="ytick ticks crisp" d="M43,0h-3.65296803652968" transform="translate(0,404.37)" style="stroke: rgb(51, 51, 51); stroke-opacity: 1; stroke-width: 0.664176px;"/><path class="ytick ticks crisp" d="M43,0h-3.65296803652968" transform="translate(0,272.24)" style="stroke: rgb(51, 51, 51); stroke-opacity: 1; stroke-width: 0.664176px;"/><path class="ytick ticks crisp" d="M43,0h-3.65296803652968" transform="translate(0,140.11)" style="stroke: rgb(51, 51, 51); stroke-opacity: 1; stroke-width: 0.664176px;"/><g class="ytick"><text text-anchor="end" x="36.15898713158988" y="5.5790784557907696" transform="translate(0,404.37)" style="font-family: 'Open Sans', verdana, arial, sans-serif; font-size: 15.9402px; fill: rgb(77, 77, 77); fill-opacity: 1; white-space: pre;">2</text></g><g class="ytick"><text text-anchor="end" x="36.15898713158988" y="5.5790784557907696" transform="translate(0,272.24)" style="font-family: 'Open Sans', verdana, arial, sans-serif; font-size: 15.9402px; fill: rgb(77, 77, 77); fill-opacity: 1; white-space: pre;">4</text></g><g class="ytick"><text text-anchor="end" x="36.15898713158988" y="5.5790784557907696" transform="translate(0,140.11)" style="font-family: 'Open Sans', verdana, arial, sans-serif; font-size: 15.9402px; fill: rgb(77, 77, 77); fill-opacity: 1; white-space: pre;">6</text></g></g><g class="overaxes-above"/></g></g><g class="polarlayer"/><g class="ternarylayer"/><g class="geolayer"/><g class="funnelarealayer"/><g class="pielayer"/><g class="treemaplayer"/><g class="sunburstlayer"/><g class="glimages"/><defs id="topdefs-71bca4"><g class="clips"/></defs><g class="layer-above"><g class="imagelayer"/><g class="shapelayer"><path data-index="0" fill-rule="evenodd" d="M44,451H693V26H44Z" style="opacity: 1; stroke: rgb(51, 51, 51); stroke-opacity: 1; fill: rgb(0, 0, 0); fill-opacity: 0; stroke-width: 0.664176px;"/></g></g><g class="infolayer"><g class="g-gtitle"/><g class="g-xtitle"/><g class="g-ytitle" transform="translate(20.1943359375,0)"><text class="ytitle" transform="rotate(-90,-3.193856371938601,238.5)" x="-3.193856371938601" y="238.5" text-anchor="middle" style="font-family: 'Open Sans', verdana, arial, sans-serif; font-size: 18.6px; fill: rgb(0, 0, 0); opacity: 1; font-weight: normal; white-space: pre;"><tspan style="font-weight:bold"> Tempo de duplicação (dias) </tspan></text></g></g></svg>