<svg class="main-svg" xmlns="http://www.w3.org/2000/svg" xmlns:xlink="http://www.w3.org/1999/xlink" width="700" height="500" viewBox="0 0 700 500"><rect x="0" y="0" width="700" height="500" style="fill: rgb(255, 255, 255); fill-opacity: 1;"/><defs id="defs-c82ba2"><g class="clips"><clipPath id="clipc82ba2xyplot" class="plotclip"><rect width="649" height="424"/></clipPath><clipPath class="axesclip" id="clipc82ba2x"><rect x="44" y="0" width="649" height="500"/></clipPath><clipPath class="axesclip" id="clipc82ba2y"><rect x="0" y="26" width="700" height="424"/></clipPath><clipPath class="axesclip" id="clipc82ba2xy"><rect x="44" y="26" width="649" height="424"/></clipPath></g><g class="gradients"/></defs><g class="bglayer"/><g class="layer-below"><g class="imagelayer"/><g class="shapelayer"/></g><g class="cartesianlayer"><g class="subplot xy"><g class="layer-subplot"><g class="shapelayer"/><g class="imagelayer"/></g><g class="gridlayer"><g class="x"><path class="xgrid crisp" transform="translate(196.42,0)" d="M0,26v424" style="stroke: rgb(235, 235, 235); stroke-opacity: 1; stroke-width: 0.664176px;"/><path class="xgrid crisp" transform="translate(368.5,0)" d="M0,26v424" style="stroke: rgb(235, 235, 235); stroke-opacity: 1; stroke-width: 0.664176px;"/><path class="xgrid crisp" transform="translate(540.5799999999999,0)" d="M0,26v424" style="stroke: rgb(235, 235, 235); stroke-opacity: 1; stroke-width: 0.664176px;"/></g><g class="y"><path class="ygrid crisp" transform="translate(0,401.02)" d="M44,0h649" style="stroke: rgb(235, 235, 235); stroke-opacity: 1; stroke-width: 0.664176px;"/><path class="ygrid crisp" transform="translate(0,329.17)" d="M44,0h649" style="stroke: rgb(235, 235, 235); stroke-opacity: 1; stroke-width: 0.664176px;"/><path class="ygrid crisp" transform="translate(0,257.32)" d="M44,0h649" style="stroke: rgb(235, 235, 235); stroke-opacity: 1; stroke-width: 0.664176px;"/><path class="ygrid crisp" transform="translate(0,185.47)" d="M44,0h649" style="stroke: rgb(235, 235, 235); stroke-opacity: 1; stroke-width: 0.664176px;"/><path class="ygrid crisp" transform="translate(0,113.62)" d="M44,0h649" style="stroke: rgb(235, 235, 235); stroke-opacity: 1; stroke-width: 0.664176px;"/><path class="ygrid crisp" transform="translate(0,41.769999999999996)" d="M44,0h649" style="stroke: rgb(235, 235, 235); stroke-opacity: 1; stroke-width: 0.664176px;"/></g></g><g class="zerolinelayer"/><path class="xlines-below"/><path class="ylines-below"/><g class="overlines-below"/><g class="xaxislayer-below"/><g class="yaxislayer-below"/><g class="overaxes-below"/><g class="plot" transform="translate(44, 26)" clip-path="url('#clipc82ba2xyplot')"><g class="scatterlayer mlayer"><g class="trace scatter trace16a52f" style="stroke-miterlimit: 2; opacity: 1;"><g class="fills"><g><path class="js-fill" d="M29.5,382.52L54.08,401.2L78.67,404.73L103.25,385.81L127.83,390.33L177,363.22L201.58,366.65L226.17,371.6L250.75,389.45L275.33,380.23L299.92,367.87L324.5,345.8L349.08,311.13L398.25,215.37L422.83,207.93L447.42,208.44L472,184.08L496.58,103.51L521.17,138.1L545.75,197.33L570.33,231.47L594.92,230.91L619.5,188.57L619.5,154.58L594.92,203.03L570.33,201.3L545.75,155.97L521.17,73.75L496.58,19.27L472,127.36L447.42,156.38L422.83,151.05L398.25,156.1L349.08,278.39L324.5,320.15L299.92,345.12L275.33,357.25L250.75,365.49L226.17,333.41L177,298.04L152.42,312.67L127.83,328.17L103.25,296.96L78.67,327.19L54.08,293.31L29.5,146.46L29.5,382.52Z" style="fill: rgb(211, 211, 211); fill-opacity: 1; stroke-width: 0;"/></g></g><g class="errorbars"/><g class="lines"><path class="js-line" d="M29.5,382.52L54.08,401.2L78.67,404.73L103.25,385.81L127.83,390.33L177,363.22L201.58,366.65L226.17,371.6L250.75,389.45L275.33,380.23L299.92,367.87L324.5,345.8L349.08,311.13L398.25,215.37L422.83,207.93L447.42,208.44L472,184.08L496.58,103.51L521.17,138.1L545.75,197.33L570.33,231.47L594.92,230.91L619.5,188.57L619.5,154.58L594.92,203.03L570.33,201.3L545.75,155.97L521.17,73.75L496.58,19.27L472,127.36L447.42,156.38L422.83,151.05L398.25,156.1L349.08,278.39L324.5,320.15L299.92,345.12L275.33,357.25L250.75,365.49L226.17,333.41L177,298.04L152.42,312.67L127.83,328.17L103.25,296.96L78.67,327.19L54.08,293.31L29.5,146.46L29.5,382.52" style="vector-effect: non-scaling-stroke; fill: none; stroke: rgb(0, 0, 0); stroke-opacity: 0; stroke-width: 1.88976px; opacity: 1;"/></g><g class="points"/><g class="text"/></g><g class="trace scatter trace968bc4" style="stroke-miterlimit: 2; opacity: 1;"><g class="fills"/><g class="errorbars"/><g class="lines"><path class="js-line" d="M29.5,318.18L54.08,363.58L78.67,375.35L103.25,352.13L127.83,365.06L177,336.11L201.58,344.83L226.17,354.62L250.75,378.43L275.33,369.58L299.92,357.26L324.5,333.83L349.08,295.93L398.25,188.35L422.83,181.85L447.42,184.41L472,157.92L496.58,65.25L521.17,108.41L545.75,177.89L570.33,217.13L594.92,217.61L619.5,172.4" style="vector-effect: non-scaling-stroke; fill: none; stroke: rgb(0, 0, 139); stroke-opacity: 1; stroke-width: 4.72441px; opacity: 1;"/></g><g class="points"/><g class="text"/></g></g></g><g class="overplot"/><path class="xlines-above crisp" d="" style="fill: none; stroke-width: 1px; stroke: rgb(0, 0, 0); stroke-opacity: 0;"/><path class="ylines-above crisp" d="" style="fill: none; stroke-width: 1px; stroke: rgb(0, 0, 0); stroke-opacity: 0;"/><g class="overlines-above"/><g class="xaxislayer-above"><path class="xtick ticks crisp" d="M0,451v3.65296803652968" transform="translate(196.42,0)" style="stroke: rgb(51, 51, 51); stroke-opacity: 1; stroke-width: 0.664176px;"/><path class="xtick ticks crisp" d="M0,451v3.65296803652968" transform="translate(368.5,0)" style="stroke: rgb(51, 51, 51); stroke-opacity: 1; stroke-width: 0.664176px;"/><path class="xtick ticks crisp" d="M0,451v3.65296803652968" transform="translate(540.5799999999999,0)" style="stroke: rgb(51, 51, 51); stroke-opacity: 1; stroke-width: 0.664176px;"/><g class="xtick"><text text-anchor="middle" x="0" y="473.7812370278123" transform="translate(196.42,0)" style="font-family: 'Open Sans', verdana, arial, sans-serif; font-size: 15.9402px; fill: rgb(77, 77, 77); fill-opacity: 1; white-space: pre;">16/Mar</text></g><g class="xtick"><text text-anchor="middle" x="0" y="473.7812370278123" transform="translate(368.5,0)" style="font-family: 'Open Sans', verdana, arial, sans-serif; font-size: 15.9402px; fill: rgb(77, 77, 77); fill-opacity: 1; white-space: pre;">23/Mar</text></g><g class="xtick"><text text-anchor="middle" x="0" y="473.7812370278123" transform="translate(540.5799999999999,0)" style="font-family: 'Open Sans', verdana, arial, sans-serif; font-size: 15.9402px; fill: rgb(77, 77, 77); fill-opacity: 1; white-space: pre;">30/Mar</text></g></g><g class="yaxislayer-above"><path class="ytick ticks crisp" d="M43,0h-3.65296803652968" transform="translate(0,401.02)" style="stroke: rgb(51, 51, 51); stroke-opacity: 1; stroke-width: 0.664176px;"/><path class="ytick ticks crisp" d="M43,0h-3.65296803652968" transform="translate(0,329.17)" style="stroke: rgb(51, 51, 51); stroke-opacity: 1; stroke-width: 0.664176px;"/><path class="ytick ticks crisp" d="M43,0h-3.65296803652968" transform="translate(0,257.32)" style="stroke: rgb(51, 51, 51); stroke-opacity: 1; stroke-width: 0.664176px;"/><path class="ytick ticks crisp" d="M43,0h-3.65296803652968" transform="translate(0,185.47)" style="stroke: rgb(51, 51, 51); stroke-opacity: 1; stroke-width: 0.664176px;"/><path class="ytick ticks crisp" d="M43,0h-3.65296803652968" transform="translate(0,113.62)" style="stroke: rgb(51, 51, 51); stroke-opacity: 1; stroke-width: 0.664176px;"/><path class="ytick ticks crisp" d="M43,0h-3.65296803652968" transform="translate(0,41.769999999999996)" style="stroke: rgb(51, 51, 51); stroke-opacity: 1; stroke-width: 0.664176px;"/><g class="ytick"><text text-anchor="end" x="36.15898713158988" y="5.5790784557907696" transform="translate(0,401.02)" style="font-family: 'Open Sans', verdana, arial, sans-serif; font-size: 15.9402px; fill: rgb(77, 77, 77); fill-opacity: 1; white-space: pre;">2</text></g><g class="ytick"><text text-anchor="end" x="36.15898713158988" y="5.5790784557907696" transform="translate(0,329.17)" style="font-family: 'Open Sans', verdana, arial, sans-serif; font-size: 15.9402px; fill: rgb(77, 77, 77); fill-opacity: 1; white-space: pre;">3</text></g><g class="ytick"><text text-anchor="end" x="36.15898713158988" y="5.5790784557907696" transform="translate(0,257.32)" style="font-family: 'Open Sans', verdana, arial, sans-serif; font-size: 15.9402px; fill: rgb(77, 77, 77); fill-opacity: 1; white-space: pre;">4</text></g><g class="ytick"><text text-anchor="end" x="36.15898713158988" y="5.5790784557907696" transform="translate(0,185.47)" style="font-family: 'Open Sans', verdana, arial, sans-serif; font-size: 15.9402px; fill: rgb(77, 77, 77); fill-opacity: 1; white-space: pre;">5</text></g><g class="ytick"><text text-anchor="end" x="36.15898713158988" y="5.5790784557907696" transform="translate(0,113.62)" style="font-family: 'Open Sans', verdana, arial, sans-serif; font-size: 15.9402px; fill: rgb(77, 77, 77); fill-opacity: 1; white-space: pre;">6</text></g><g class="ytick"><text text-anchor="end" x="36.15898713158988" y="5.5790784557907696" transform="translate(0,41.769999999999996)" style="font-family: 'Open Sans', verdana, arial, sans-serif; font-size: 15.9402px; fill: rgb(77, 77, 77); fill-opacity: 1; white-space: pre;">7</text></g></g><g class="overaxes-above"/></g></g><g class="polarlayer"/><g class="ternarylayer"/><g class="geolayer"/><g class="funnelarealayer"/><g class="pielayer"/><g class="treemaplayer"/><g class="sunburstlayer"/><g class="glimages"/><defs id="topdefs-c82ba2"><g class="clips"/></defs><g class="layer-above"><g class="imagelayer"/><g class="shapelayer"><path data-index="0" fill-rule="evenodd" d="M44,450H693V26H44Z" style="opacity: 1; stroke: rgb(51, 51, 51); stroke-opacity: 1; fill: rgb(0, 0, 0); fill-opacity: 0; stroke-width: 0.664176px;"/></g></g><g class="infolayer"><g class="g-gtitle"/><g class="g-xtitle"/><g class="g-ytitle" transform="translate(20.1943359375,0)"><text class="ytitle" transform="rotate(-90,-3.193856371938601,238)" x="-3.193856371938601" y="238" text-anchor="middle" style="font-family: 'Open Sans', verdana, arial, sans-serif; font-size: 18.6px; fill: rgb(0, 0, 0); opacity: 1; font-weight: normal; white-space: pre;"><tspan style="font-weight:bold"> Tempo de duplicação (dias) </tspan></text></g></g></svg>